<svg xmlns="http://www.w3.org/2000/svg" xmlns:xlink="http://www.w3.org/1999/xlink" width="404" height="248.429443359375" viewBox="0 0 404 248.429443359375" fill="none">
<path d="M316.902 246.429C338.807 220.355 352 186.718 352 150C352 67.1573 284.843 0 202 0C119.157 0 52 67.1573 52 150C52 186.718 65.1932 220.355 87.0977 246.429L316.902 246.429Z" fill-rule="evenodd"  fill="#F0F3FC" >
</path>
<g opacity="0.15">
<path d="M290.488 106.067L288.579 108.338C288.415 108.533 288.309 108.769 288.272 109.02L283.451 141.836C283.36 142.45 283.695 143.049 284.266 143.294L288.579 145.142C288.758 145.219 288.941 145.254 289.119 145.254L289.119 155.723C289.119 156.102 289.425 156.408 289.804 156.408C290.182 156.408 290.489 156.102 290.489 155.723L290.489 136.543C290.489 136.537 290.489 136.53 290.488 136.523L290.488 106.067Z" fill-rule="evenodd"  fill="#9D9FA4" >
</path>
<path d="M290.488 105.382L288.579 107.653C288.415 107.847 288.309 108.084 288.272 108.335L283.451 141.151C283.36 141.765 283.695 142.364 284.266 142.609L288.579 144.457C288.758 144.534 288.941 144.569 289.119 144.569L289.119 155.039C289.119 155.417 289.425 155.724 289.804 155.724C290.182 155.724 290.489 155.417 290.489 155.039L290.489 135.859C290.489 135.852 290.489 135.845 290.488 135.839L290.488 105.382Z" fill-rule="evenodd"  fill="#BCBEC4" >
</path>
<path d="M246.826 179.518L249.747 180.036C249.998 180.081 250.255 180.055 250.492 179.961L281.321 167.729C281.899 167.5 282.25 166.91 282.176 166.293L281.62 161.634C281.597 161.441 281.537 161.265 281.448 161.111L290.515 155.876C290.842 155.687 290.954 155.268 290.765 154.94C290.576 154.613 290.157 154.5 289.83 154.69L273.219 164.28C273.213 164.283 273.208 164.286 273.202 164.29L246.826 179.518Z" fill-rule="evenodd"  fill="#9D9FA4" >
</path>
<path d="M246.484 179.176L249.405 179.694C249.655 179.738 249.913 179.712 250.149 179.619L280.979 167.386C281.556 167.157 281.907 166.568 281.834 165.951L281.278 161.292C281.255 161.099 281.194 160.923 281.105 160.768L290.172 155.534C290.5 155.344 290.612 154.926 290.423 154.598C290.234 154.27 289.815 154.158 289.487 154.347L272.877 163.937C272.871 163.941 272.865 163.944 272.86 163.947L246.484 179.176Z" fill-rule="evenodd"  fill="#BCBEC4" >
</path>
<path d="M332.712 181.174L331.7 178.385C331.614 178.146 331.462 177.936 331.263 177.778L305.255 157.195C304.767 156.81 304.082 156.8 303.584 157.173L299.827 159.984C299.671 160.1 299.549 160.24 299.46 160.395L290.393 155.16C290.065 154.971 289.646 155.083 289.457 155.411C289.268 155.738 289.38 156.157 289.708 156.346L306.318 165.936C306.324 165.94 306.33 165.943 306.336 165.946L332.712 181.174Z" fill-rule="evenodd"  fill="#9D9FA4" >
</path>
<path d="M332.712 180.489L331.7 177.7C331.614 177.461 331.462 177.251 331.263 177.093L305.255 156.51C304.767 156.125 304.082 156.115 303.584 156.488L299.827 159.299C299.671 159.415 299.549 159.556 299.46 159.71L290.393 154.475C290.065 154.286 289.646 154.398 289.457 154.726C289.268 155.053 289.38 155.472 289.708 155.662L306.318 165.252C306.325 165.255 306.332 165.259 306.339 165.263L332.712 180.489Z" fill-rule="evenodd"  fill="#BCBEC4" >
</path>
<path d="M291.564 157.81C292.543 157.392 293.229 156.42 293.229 155.289C293.229 153.776 292.002 152.549 290.489 152.549C288.976 152.549 287.749 153.776 287.749 155.289C287.749 156.42 288.434 157.391 289.413 157.809L283.982 248.429L296.995 248.429L291.564 157.81Z" fill-rule="evenodd"  fill="#9D9FA4" >
</path>
<path d="M290.879 157.81C291.858 157.392 292.544 156.42 292.544 155.289C292.544 153.776 291.317 152.549 289.804 152.549C288.291 152.549 287.064 153.776 287.064 155.289C287.064 156.42 287.75 157.391 288.728 157.809L283.297 248.429L296.31 248.429L290.879 157.81Z" fill-rule="evenodd"  fill="#BCBEC4" >
</path>
</g>
<g opacity="0.6">
<rect  x="56" y="122.4287109375" width="26.71" height="63" rx="13.355"    fill="#E9EBF2" >
</rect>
<rect  x="68.7589111328125" y="147.9462890625" width="1.59" height="98.48" rx="0.795"    fill="#E1E2E5" >
</rect>
<rect  x="75.33837890625" y="151.4482421875" width="1.59" height="13.44" transform="rotate(30.000000445292045 75.33837890625 151.4482421875)" rx="0.795"    fill="#E1E2E5" >
</rect>
<rect  transform="matrix(0.8660253882408142, -0.5, -0.5, -0.8660253882408142, 69.200927734375, 172.9189453125)" x="0" y="0" width="1.59" height="18.91" rx="0.795"    fill="#E1E2E5" >
</rect>
</g>
<rect  x="91" y="70.4287109375" width="38.2" height="90.08" rx="19.1"    fill="#E9EBF2" >
</rect>
<rect  x="109.2445068359375" y="106.91748046875" width="2.28" height="140.82" rx="1.14"    fill="#E1E2E5" >
</rect>
<rect  x="118.6529541015625" y="111.9248046875" width="2.28" height="19.22" transform="rotate(30.000000445292045 118.6529541015625 111.9248046875)" rx="1.14"    fill="#E1E2E5" >
</rect>
<rect  transform="matrix(0.8660253882408142, -0.5, -0.5, -0.8660253882408142, 109.8765869140625, 142.627197265625)" x="0" y="0" width="2.28" height="27.04" rx="1.14"    fill="#E1E2E5" >
</rect>
<g opacity="0.8">
<path d="M136.993 52.5668C136.995 52.4977 136.996 52.4283 136.996 52.3587C136.996 47.9791 133.445 44.4287 129.066 44.4287C124.686 44.4287 121.136 47.9791 121.136 52.3587C121.136 52.4284 121.136 52.4979 121.138 52.5671C121.069 52.5653 121 52.5644 120.93 52.5644C116.55 52.5644 113 56.1148 113 60.4944C113 64.874 116.55 68.4244 120.93 68.4244C120.999 68.4244 121.067 68.4235 121.136 68.4218L121.136 68.4288L136.996 68.4288L136.996 68.4219C141.282 68.3152 144.724 64.8068 144.724 60.4944C144.724 56.1812 141.281 52.6722 136.993 52.5668Z" fill-rule="evenodd"  fill="#FFFFFF" >
</path>
</g>
<g opacity="0.6">
<path d="M271.001 71.1415C271.002 71.1189 271.002 71.0964 271.002 71.0737C271.002 69.6129 269.818 68.4287 268.357 68.4287C266.896 68.4287 265.712 69.6129 265.712 71.0737C265.712 71.0964 265.712 71.1189 265.713 71.1415C265.69 71.1409 265.668 71.1406 265.645 71.1406C264.184 71.1406 263 72.3248 263 73.7856C263 75.2464 264.184 76.4306 265.645 76.4306C265.667 76.4306 265.69 76.4303 265.712 76.4298L265.712 76.4321L271.002 76.4321L271.002 76.4297C272.431 76.3932 273.578 75.2234 273.578 73.7856C273.578 72.3475 272.43 71.1775 271.001 71.1415Z" fill-rule="evenodd"  fill="#FFFFFF" >
</path>
</g>
<path d="M224.788 17.1159C222.805 12.5904 218.287 9.42871 213.03 9.42871C205.944 9.42871 200.2 15.1729 200.2 22.2587C200.2 22.3588 200.201 22.4585 200.203 22.558C197.235 23.159 195 25.7829 195 28.9287C195 32.5186 197.91 35.4287 201.5 35.4287L239.98 35.4287C243.57 35.4287 246.48 32.5186 246.48 28.9287C246.48 25.3389 243.57 22.4287 239.98 22.4287L237.042 22.4287C236.517 18.6198 233.249 15.6863 229.296 15.6863C227.617 15.6863 226.062 16.2154 224.788 17.1159Z" fill-rule="evenodd"  fill="#FFFFFF" >
</path>
<g opacity="0.6">
<path d="M169.153 88.5634C168.344 86.7179 166.5 85.4287 164.356 85.4287C161.465 85.4287 159.121 87.7725 159.121 90.6637C159.121 90.704 159.122 90.7441 159.123 90.7842C157.912 91.0287 157 92.0988 157 93.3817C157 94.8453 158.186 96.0317 159.65 96.0317L175.35 96.0317C176.814 96.0317 178 94.8453 178 93.3817C178 91.9182 176.814 90.7317 175.35 90.7317L174.15 90.7317C173.936 89.178 172.603 87.9814 170.99 87.9814C170.306 87.9814 169.672 88.1968 169.153 88.5634Z" fill-rule="evenodd"  fill="#FFFFFF" >
</path>
</g>
<path d="M320.385 24.5684L317.382 28.1387C317.124 28.4447 316.957 28.8164 316.899 29.212L309.318 80.8131C309.176 81.7798 309.702 82.721 310.6 83.1059L317.382 86.0124C317.663 86.1329 317.951 86.1887 318.231 86.1889L318.231 102.65C318.231 103.243 318.712 103.725 319.306 103.725C319.899 103.725 320.381 103.243 320.381 102.65L320.381 84.1656C320.383 84.1217 320.385 84.0774 320.385 84.0327L320.385 24.5684Z" fill-rule="evenodd"  fill="#DCDFE5" >
</path>
<path d="M320.385 23.4915L317.382 27.0618C317.124 27.3678 316.957 27.7395 316.899 28.1351L309.318 79.7362C309.176 80.7029 309.702 81.6441 310.6 82.029L317.382 84.9355C317.663 85.056 317.951 85.1118 318.231 85.112L318.231 101.573C318.231 102.166 318.712 102.648 319.306 102.648C319.899 102.648 320.381 102.166 320.381 101.573L320.381 83.0887C320.383 83.0448 320.385 83.0005 320.385 82.9558L320.385 23.4915Z" fill-rule="evenodd"  fill="#E9EBF2" >
</path>
<path d="M251.727 140.069L256.32 140.884C256.714 140.954 257.119 140.913 257.491 140.765L305.97 121.53C306.878 121.17 307.43 120.243 307.314 119.273L306.44 111.947C306.404 111.643 306.309 111.366 306.169 111.124L320.424 102.893C320.938 102.596 321.114 101.939 320.817 101.425C320.521 100.911 319.863 100.734 319.349 101.031L303.34 110.274C303.301 110.294 303.263 110.314 303.224 110.336L251.727 140.069Z" fill-rule="evenodd"  fill="#DCDFE5" >
</path>
<path d="M251.188 139.53L255.782 140.345C256.175 140.415 256.581 140.374 256.952 140.227L305.431 120.992C306.339 120.631 306.891 119.705 306.775 118.735L305.902 111.408C305.865 111.104 305.77 110.828 305.63 110.585L319.885 102.355C320.4 102.058 320.576 101.4 320.279 100.886C319.982 100.372 319.325 100.196 318.811 100.493L302.801 109.736C302.763 109.755 302.724 109.776 302.686 109.798L251.188 139.53Z" fill-rule="evenodd"  fill="#E9EBF2" >
</path>
<path d="M386.78 142.673L385.189 138.287C385.053 137.911 384.815 137.581 384.501 137.332L343.604 104.966C342.838 104.36 341.759 104.345 340.977 104.93L335.069 109.351C334.824 109.534 334.632 109.755 334.492 109.997L320.237 101.767C319.722 101.47 319.065 101.646 318.768 102.16C318.471 102.674 318.647 103.332 319.162 103.629L335.169 112.871C335.206 112.895 335.244 112.918 335.282 112.94L386.78 142.673Z" fill-rule="evenodd"  fill="#DCDFE5" >
</path>
<path d="M386.78 141.596L385.189 137.21C385.053 136.834 384.815 136.504 384.501 136.255L343.604 103.889C342.838 103.283 341.759 103.268 340.977 103.854L335.069 108.274C334.824 108.457 334.632 108.678 334.492 108.92L320.237 100.69C319.722 100.393 319.065 100.569 318.768 101.083C318.471 101.597 318.647 102.255 319.162 102.552L335.169 111.794C335.206 111.818 335.244 111.841 335.282 111.864L386.78 141.596Z" fill-rule="evenodd"  fill="#E9EBF2" >
</path>
<path d="M322.076 105.936C323.617 105.279 324.697 103.75 324.697 101.969C324.697 99.5891 322.767 97.6594 320.387 97.6594C318.007 97.6594 316.077 99.5891 316.077 101.969C316.077 103.748 317.155 105.276 318.693 105.934L310.154 248.429L330.615 248.429L322.076 105.936Z" fill-rule="evenodd"  fill="#DCDFE5" >
</path>
<path d="M321 105.936C322.54 105.279 323.62 103.75 323.62 101.969C323.62 99.5891 321.69 97.6594 319.31 97.6594C316.93 97.6594 315 99.5891 315 101.969C315 103.748 316.078 105.276 317.616 105.934L309.077 248.429L329.538 248.429L321 105.936Z" fill-rule="evenodd"  fill="#E9EBF2" >
</path>
<path d="M329.967 245.429L340.906 245.429C343.319 245.429 345.96 244.949 342.376 242.941C345.394 242.941 348.45 241.229 342.981 240.316C345.244 238.855 345.244 234.108 339.775 236.482C342.981 231.004 337.7 228.447 334.683 233.56C333.174 228.63 325.441 226.804 327.704 235.569C324.082 233.56 318.801 238.376 325.968 240.932C322.761 241.663 317.293 245.429 329.967 245.429Z"   fill="#D7D8DE" >
</path>
<path d="M281.967 245.429L292.906 245.429C295.319 245.429 297.96 244.949 294.376 242.941C297.394 242.941 300.45 241.229 294.981 240.316C297.244 238.855 297.244 234.108 291.775 236.482C294.981 231.004 289.7 228.447 286.683 233.56C285.174 228.63 277.441 226.804 279.704 235.569C276.082 233.56 270.801 238.376 277.968 240.932C274.761 241.663 269.293 245.429 281.967 245.429Z"   fill="#D7D8DE" >
</path>
<path d="M304.116 246.429L325.538 246.429C330.263 246.429 335.434 245.53 328.416 241.764C334.326 241.764 340.312 238.554 329.601 236.843C334.033 234.104 334.033 225.202 323.322 229.653C329.601 219.382 319.259 214.589 313.35 224.175C310.395 214.931 295.252 211.508 299.684 227.941C292.59 224.175 282.248 233.205 296.283 237.998C290.004 239.367 279.296 246.429 304.116 246.429Z"   fill="#E1E1E5" >
</path>
<path d="M280.992 223.572C281.842 224.259 282.26 225.262 282.403 226.26C282.552 227.293 283.151 228.551 284.318 228.933C285.486 229.315 286.553 226.932 284.561 224.982C283.738 224.175 282.981 223.633 280.992 223.572Z"   fill="#E5E6ED" >
</path>
<path d="M285.398 229.146C285.112 227.79 284.302 225.025 282.138 224.049C283.28 224.551 284.766 226.329 285.133 229.213L285.398 229.146Z"   fill="#727785" >
</path>
<path d="M284.306 226.23C284.382 225.91 284.488 225.235 284.123 224.806C284.317 225.03 284.455 225.562 284.242 226.218L284.306 226.23Z"   fill="#727785" >
</path>
<path d="M283.817 225.518C283.647 225.505 283.296 225.45 283.128 225.19C283.215 225.327 283.463 225.486 283.819 225.482L283.817 225.518Z"   fill="#727785" >
</path>
<path d="M284.758 227.216C284.914 226.927 285.19 226.301 284.948 225.793C285.078 226.059 285.075 226.609 284.7 227.188L284.758 227.216Z"   fill="#727785" >
</path>
<path d="M284.528 226.728C284.2 226.705 283.524 226.603 283.225 226.125C283.379 226.378 283.845 226.67 284.535 226.664L284.528 226.728Z"   fill="#727785" >
</path>
<path d="M284.975 228.073C284.534 228.026 283.625 227.855 283.206 227.162C283.423 227.528 284.058 227.964 284.982 227.981L284.975 228.073Z"   fill="#727785" >
</path>
<path d="M343.489 226.96C342.419 227.186 341.591 227.889 341.01 228.713C340.408 229.566 339.303 230.414 338.089 230.224C336.876 230.033 337.009 227.426 339.669 226.594C340.769 226.25 341.69 226.111 343.489 226.96Z"   fill="#E5E6ED" >
</path>
<path d="M337.031 229.922C337.902 228.844 339.88 226.75 342.251 226.864C341.006 226.792 338.874 227.7 337.236 230.102L337.031 229.922Z"   fill="#727785" >
</path>
<path d="M339.329 227.822C339.407 227.503 339.619 226.853 340.139 226.637C339.865 226.748 339.499 227.159 339.392 227.84L339.329 227.822Z"   fill="#727785" >
</path>
<path d="M340.089 227.41C340.245 227.475 340.583 227.586 340.851 227.431C340.711 227.514 340.417 227.543 340.103 227.377L340.089 227.41Z"   fill="#727785" >
</path>
<path d="M338.478 228.494C338.471 228.166 338.509 227.483 338.956 227.141C338.719 227.318 338.472 227.809 338.543 228.496L338.478 228.494Z"   fill="#727785" >
</path>
<path d="M338.905 228.165C339.208 228.293 339.856 228.509 340.339 228.22C340.087 228.374 339.539 228.423 338.928 228.104L338.905 228.165Z"   fill="#727785" >
</path>
<path d="M337.895 229.159C338.309 229.318 339.197 229.579 339.885 229.152C339.526 229.38 338.762 229.479 337.931 229.074L337.895 229.159Z"   fill="#727785" >
</path>
<path d="M319.313 209.569C318.516 210.316 318.171 211.347 318.101 212.352C318.029 213.394 317.522 214.692 316.386 215.158C315.249 215.624 314.012 213.325 315.856 211.235C316.619 210.371 317.335 209.775 319.313 209.569Z"   fill="#E5E6ED" >
</path>
<path d="M315.324 215.449C315.511 214.075 316.118 211.259 318.205 210.129C317.103 210.711 315.75 212.593 315.594 215.496L315.324 215.449Z"   fill="#727785" >
</path>
<path d="M316.202 212.461C316.103 212.148 315.948 211.482 316.281 211.028C316.103 211.265 316.004 211.806 316.265 212.444L316.202 212.461Z"   fill="#727785" >
</path>
<path d="M316.638 211.715C316.806 211.69 317.152 211.61 317.301 211.338C317.224 211.481 316.988 211.658 316.633 211.68L316.638 211.715Z"   fill="#727785" >
</path>
<path d="M315.822 213.478C315.646 213.2 315.325 212.597 315.529 212.072C315.419 212.347 315.462 212.895 315.878 213.445L315.822 213.478Z"   fill="#727785" >
</path>
<path d="M316.017 212.974C316.342 212.927 317.009 212.776 317.272 212.278C317.137 212.541 316.693 212.867 316.005 212.911L316.017 212.974Z"   fill="#727785" >
</path>
<path d="M315.668 214.348C316.104 214.27 316.999 214.033 317.366 213.311C317.177 213.692 316.575 214.172 315.654 214.257L315.668 214.348Z"   fill="#727785" >
</path>
<path d="M295.807 211.511C296.271 211.956 296.466 212.565 296.5 213.157C296.535 213.771 296.824 214.538 297.489 214.821C298.155 215.103 298.899 213.759 297.829 212.516C297.387 212.002 296.97 211.647 295.807 211.511Z"   fill="#E5E6ED" >
</path>
<path d="M298.112 214.999C298.012 214.19 297.675 212.529 296.456 211.848C297.1 212.199 297.882 213.316 297.953 215.025L298.112 214.999Z"   fill="#727785" >
</path>
<path d="M297.617 213.236C297.678 213.052 297.774 212.661 297.581 212.392C297.684 212.532 297.738 212.851 297.58 213.225L297.617 213.236Z"   fill="#727785" >
</path>
<path d="M297.366 212.793C297.267 212.777 297.064 212.727 296.979 212.566C297.023 212.651 297.16 212.757 297.369 212.773L297.366 212.793Z"   fill="#727785" >
</path>
<path d="M297.833 213.836C297.939 213.674 298.132 213.321 298.016 213.011C298.078 213.173 298.049 213.496 297.8 213.816L297.833 213.836Z"   fill="#727785" >
</path>
<path d="M297.722 213.539C297.531 213.508 297.14 213.415 296.989 213.12C297.067 213.275 297.325 213.47 297.73 213.501L297.722 213.539Z"   fill="#727785" >
</path>
<path d="M297.917 214.349C297.661 214.3 297.136 214.154 296.926 213.727C297.034 213.952 297.385 214.239 297.926 214.296L297.917 214.349Z"   fill="#727785" >
</path>
<path d="M63.9758 246.429L74.5896 246.429C76.9306 246.429 79.4925 245.983 76.0156 244.117C78.9435 244.117 81.9094 242.527 76.6025 241.679C78.7985 240.322 78.7985 235.912 73.4916 238.117C76.6025 233.028 71.4786 230.653 68.5507 235.403C67.0867 230.823 59.5839 229.127 61.7798 237.269C58.2649 235.403 53.141 239.877 60.0949 242.252C56.984 242.93 51.6784 246.429 63.9758 246.429Z"   fill="#E9EBF2" >
</path>
<path d="M75.0565 245.933L80.4763 245.933C81.6717 245.933 82.9799 245.696 81.2044 244.701C82.6995 244.701 84.2141 243.852 81.5042 243.4C82.6255 242.676 82.6255 240.324 79.9156 241.5C81.5042 238.786 78.8877 237.52 77.3926 240.053C76.645 237.61 72.8138 236.706 73.9351 241.048C72.1403 240.053 69.5238 242.439 73.0747 243.705C71.4862 244.067 68.777 245.933 75.0565 245.933Z"   fill="#DFE0E5" >
</path>
<path d="M55.0183 233.009C55.5483 233.121 55.9587 233.469 56.2465 233.877C56.5447 234.3 57.0925 234.72 57.6938 234.626C58.295 234.531 58.2291 233.24 56.9112 232.827C56.3659 232.657 55.9099 232.588 55.0183 233.009Z"   fill="#E5E6ED" >
</path>
<path d="M58.2181 234.476C57.7865 233.942 56.8063 232.905 55.6318 232.961C56.2484 232.925 57.3047 233.375 58.1162 234.566L58.2181 234.476Z"   fill="#727785" >
</path>
<path d="M57.0793 233.436C57.0408 233.277 56.9357 232.955 56.678 232.848C56.8139 232.903 56.9949 233.107 57.0484 233.444L57.0793 233.436Z"   fill="#727785" >
</path>
<path d="M56.7031 233.231C56.6254 233.264 56.458 233.319 56.3253 233.242C56.3946 233.283 56.5401 233.297 56.696 233.215L56.7031 233.231Z"   fill="#727785" >
</path>
<path d="M57.5011 233.769C57.5047 233.606 57.486 233.268 57.2645 233.098C57.3817 233.186 57.5042 233.429 57.469 233.769L57.5011 233.769Z"   fill="#727785" >
</path>
<path d="M57.2896 233.606C57.1395 233.669 56.8182 233.776 56.5789 233.633C56.7038 233.709 56.9752 233.734 57.2783 233.575L57.2896 233.606Z"   fill="#727785" >
</path>
<path d="M57.7898 234.098C57.585 234.177 57.1449 234.306 56.8041 234.094C56.9821 234.207 57.3605 234.256 57.7723 234.056L57.7898 234.098Z"   fill="#727785" >
</path>
<path d="M82.2069 236.477C81.677 236.589 81.2665 236.937 80.9787 237.345C80.6805 237.768 80.1327 238.188 79.5315 238.094C78.9302 237.999 78.9961 236.708 80.3141 236.295C80.8593 236.125 81.3153 236.056 82.2069 236.477Z"   fill="#E5E6ED" >
</path>
<path d="M79.0071 237.945C79.4387 237.411 80.4189 236.373 81.5934 236.429C80.9769 236.394 79.9205 236.844 79.109 238.034L79.0071 237.945Z"   fill="#727785" >
</path>
<path d="M80.1458 236.904C80.1843 236.746 80.2894 236.424 80.5471 236.317C80.4112 236.371 80.2302 236.575 80.1767 236.913L80.1458 236.904Z"   fill="#727785" >
</path>
<path d="M80.5221 236.699C80.5998 236.732 80.7672 236.787 80.8999 236.71C80.8306 236.751 80.6851 236.765 80.5292 236.684L80.5221 236.699Z"   fill="#727785" >
</path>
<path d="M79.7241 237.237C79.7205 237.074 79.7392 236.736 79.9607 236.566C79.8435 236.654 79.721 236.898 79.7563 237.238L79.7241 237.237Z"   fill="#727785" >
</path>
<path d="M79.9356 237.074C80.0857 237.137 80.407 237.244 80.6464 237.101C80.5214 237.178 80.25 237.202 79.947 237.044L79.9356 237.074Z"   fill="#727785" >
</path>
<path d="M79.4354 237.566C79.6402 237.645 80.0803 237.774 80.4211 237.563C80.2431 237.676 79.8647 237.725 79.4529 237.524L79.4354 237.566Z"   fill="#727785" >
</path>
<path d="M70.5146 230.148C70.1193 230.518 69.9487 231.029 69.914 231.527C69.878 232.043 69.6271 232.687 69.064 232.917C68.5008 233.148 67.888 232.009 68.8016 230.974C69.1796 230.545 69.5341 230.25 70.5146 230.148Z"   fill="#E5E6ED" >
</path>
<path d="M68.5382 233.061C68.6307 232.381 68.9316 230.986 69.9653 230.425C69.4194 230.714 68.7491 231.646 68.6716 233.085L68.5382 233.061Z"   fill="#727785" >
</path>
<path d="M68.9731 231.581C68.9239 231.426 68.8471 231.096 69.0121 230.871C68.9242 230.988 68.8749 231.256 69.0041 231.573L68.9731 231.581Z"   fill="#727785" >
</path>
<path d="M69.1889 231.211C69.2723 231.199 69.4439 231.159 69.5175 231.024C69.4795 231.096 69.3624 231.183 69.1867 231.194L69.1889 231.211Z"   fill="#727785" >
</path>
<path d="M68.785 232.084C68.6975 231.947 68.5383 231.648 68.6398 231.388C68.5851 231.524 68.6064 231.796 68.8127 232.068L68.785 232.084Z"   fill="#727785" >
</path>
<path d="M68.8813 231.835C69.0425 231.812 69.3728 231.737 69.5033 231.49C69.4361 231.62 69.2164 231.782 68.8754 231.804L68.8813 231.835Z"   fill="#727785" >
</path>
<path d="M68.7085 232.516C68.9245 232.477 69.368 232.36 69.5498 232.002C69.456 232.191 69.1578 232.429 68.7016 232.471L68.7085 232.516Z"   fill="#727785" >
</path>
<path d="M59.1225 230.615C59.3523 230.835 59.449 231.137 59.4658 231.43C59.4832 231.734 59.6261 232.115 59.9557 232.255C60.2854 232.394 60.6543 231.729 60.1243 231.113C59.905 230.858 59.6986 230.682 59.1225 230.615Z"   fill="#E5E6ED" >
</path>
<path d="M60.264 232.343C60.2146 231.942 60.0477 231.119 59.4436 230.782C59.7627 230.956 60.1503 231.509 60.1854 232.356L60.264 232.343Z"   fill="#727785" >
</path>
<path d="M60.019 231.469C60.049 231.378 60.0967 231.185 60.0012 231.051C60.0521 231.121 60.0791 231.279 60.0008 231.464L60.019 231.469Z"   fill="#727785" >
</path>
<path d="M59.8947 231.25C59.8457 231.242 59.745 231.217 59.7028 231.138C59.7246 231.18 59.7928 231.232 59.8961 231.24L59.8947 231.25Z"   fill="#727785" >
</path>
<path d="M60.1259 231.767C60.1784 231.687 60.2743 231.512 60.2164 231.358C60.2476 231.439 60.2331 231.598 60.1097 231.757L60.1259 231.767Z"   fill="#727785" >
</path>
<path d="M60.0711 231.619C59.9764 231.604 59.7826 231.558 59.7076 231.412C59.7462 231.489 59.8743 231.585 60.0748 231.601L60.0711 231.619Z"   fill="#727785" >
</path>
<path d="M60.1677 232.021C60.0409 231.996 59.7809 231.924 59.6765 231.712C59.7303 231.824 59.904 231.966 60.1721 231.994L60.1677 232.021Z"   fill="#727785" >
</path>
<path d="M78.1028 234.083C77.8729 234.304 77.7763 234.605 77.7595 234.899C77.7421 235.203 77.5991 235.583 77.2695 235.723C76.9398 235.863 76.571 235.197 77.101 234.581C77.3202 234.326 77.5266 234.15 78.1028 234.083Z"   fill="#E5E6ED" >
</path>
<path d="M76.9612 235.811C77.0106 235.41 77.1775 234.587 77.7816 234.25C77.4625 234.424 77.075 234.977 77.0398 235.824L76.9612 235.811Z"   fill="#727785" >
</path>
<path d="M77.2062 234.937C77.1762 234.846 77.1286 234.653 77.224 234.519C77.1732 234.589 77.1461 234.747 77.2244 234.932L77.2062 234.937Z"   fill="#727785" >
</path>
<path d="M77.3305 234.718C77.3795 234.71 77.4802 234.686 77.5225 234.606C77.5006 234.648 77.4324 234.7 77.3291 234.708L77.3305 234.718Z"   fill="#727785" >
</path>
<path d="M77.0992 235.235C77.0467 235.155 76.9508 234.98 77.0087 234.826C76.9775 234.907 76.992 235.066 77.1154 235.225L77.0992 235.235Z"   fill="#727785" >
</path>
<path d="M77.154 235.088C77.2487 235.073 77.4425 235.026 77.5175 234.88C77.4789 234.957 77.3508 235.054 77.1503 235.069L77.154 235.088Z"   fill="#727785" >
</path>
<path d="M77.0575 235.489C77.1843 235.465 77.4443 235.392 77.5487 235.181C77.4949 235.292 77.3212 235.435 77.0531 235.463L77.0575 235.489Z"   fill="#727785" >
</path>
<path d="M110.976 246.429L121.59 246.429C123.931 246.429 126.493 245.983 123.016 244.117C125.943 244.117 128.909 242.527 123.603 241.679C125.799 240.322 125.799 235.912 120.492 238.117C123.603 233.028 118.479 230.653 115.551 235.403C114.087 230.823 106.584 229.127 108.78 237.269C105.265 235.403 100.141 239.877 107.095 242.252C103.984 242.93 98.6784 246.429 110.976 246.429Z"   fill="#E9EBF2" >
</path>
<path d="M122.056 245.933L127.476 245.933C128.672 245.933 129.98 245.696 128.204 244.701C129.7 244.701 131.214 243.852 128.504 243.4C129.626 242.676 129.626 240.324 126.916 241.5C128.504 238.786 125.888 237.52 124.393 240.053C123.645 237.61 119.814 236.706 120.935 241.048C119.14 240.053 116.524 242.439 120.075 243.705C118.486 244.067 115.777 245.933 122.056 245.933Z"   fill="#DFE0E5" >
</path>
<path d="M102.018 233.009C102.548 233.121 102.959 233.469 103.247 233.877C103.545 234.3 104.093 234.72 104.694 234.626C105.295 234.531 105.229 233.24 103.911 232.827C103.366 232.657 102.91 232.588 102.018 233.009Z"   fill="#E5E6ED" >
</path>
<path d="M105.218 234.476C104.787 233.942 103.806 232.905 102.632 232.961C103.248 232.925 104.305 233.375 105.116 234.566L105.218 234.476Z"   fill="#727785" >
</path>
<path d="M104.079 233.436C104.041 233.277 103.936 232.955 103.678 232.848C103.814 232.903 103.995 233.107 104.048 233.444L104.079 233.436Z"   fill="#727785" >
</path>
<path d="M103.703 233.231C103.625 233.264 103.458 233.319 103.325 233.242C103.395 233.283 103.54 233.297 103.696 233.215L103.703 233.231Z"   fill="#727785" >
</path>
<path d="M104.501 233.769C104.505 233.606 104.486 233.268 104.265 233.098C104.382 233.186 104.504 233.429 104.469 233.769L104.501 233.769Z"   fill="#727785" >
</path>
<path d="M104.29 233.606C104.139 233.669 103.818 233.776 103.579 233.633C103.704 233.709 103.975 233.734 104.278 233.575L104.29 233.606Z"   fill="#727785" >
</path>
<path d="M104.79 234.098C104.585 234.177 104.145 234.306 103.804 234.094C103.982 234.207 104.361 234.256 104.772 234.056L104.79 234.098Z"   fill="#727785" >
</path>
<path d="M129.207 236.477C128.677 236.589 128.267 236.937 127.979 237.345C127.681 237.768 127.133 238.188 126.531 238.094C125.93 237.999 125.996 236.708 127.314 236.295C127.859 236.125 128.315 236.056 129.207 236.477Z"   fill="#E5E6ED" >
</path>
<path d="M126.007 237.945C126.439 237.411 127.419 236.373 128.593 236.429C127.977 236.394 126.921 236.844 126.109 238.034L126.007 237.945Z"   fill="#727785" >
</path>
<path d="M127.146 236.904C127.184 236.746 127.289 236.424 127.547 236.317C127.411 236.371 127.23 236.575 127.177 236.913L127.146 236.904Z"   fill="#727785" >
</path>
<path d="M127.522 236.699C127.6 236.732 127.767 236.787 127.9 236.71C127.831 236.751 127.685 236.765 127.529 236.684L127.522 236.699Z"   fill="#727785" >
</path>
<path d="M126.724 237.237C126.721 237.074 126.739 236.736 126.961 236.566C126.843 236.654 126.721 236.898 126.756 237.238L126.724 237.237Z"   fill="#727785" >
</path>
<path d="M126.936 237.074C127.086 237.137 127.407 237.244 127.646 237.101C127.521 237.178 127.25 237.202 126.947 237.044L126.936 237.074Z"   fill="#727785" >
</path>
<path d="M126.435 237.566C126.64 237.645 127.08 237.774 127.421 237.563C127.243 237.676 126.865 237.725 126.453 237.524L126.435 237.566Z"   fill="#727785" >
</path>
<path d="M117.515 230.148C117.119 230.518 116.949 231.029 116.914 231.527C116.878 232.043 116.627 232.687 116.064 232.917C115.501 233.148 114.888 232.009 115.802 230.974C116.18 230.545 116.534 230.25 117.515 230.148Z"   fill="#E5E6ED" >
</path>
<path d="M115.538 233.061C115.631 232.381 115.932 230.986 116.965 230.425C116.419 230.714 115.749 231.646 115.672 233.085L115.538 233.061Z"   fill="#727785" >
</path>
<path d="M115.973 231.581C115.924 231.426 115.847 231.096 116.012 230.871C115.924 230.988 115.875 231.256 116.004 231.573L115.973 231.581Z"   fill="#727785" >
</path>
<path d="M116.189 231.211C116.272 231.199 116.444 231.159 116.517 231.024C116.479 231.096 116.362 231.183 116.187 231.194L116.189 231.211Z"   fill="#727785" >
</path>
<path d="M115.785 232.084C115.697 231.947 115.538 231.648 115.64 231.388C115.585 231.524 115.606 231.796 115.813 232.068L115.785 232.084Z"   fill="#727785" >
</path>
<path d="M115.881 231.835C116.042 231.812 116.373 231.737 116.503 231.49C116.436 231.62 116.216 231.782 115.875 231.804L115.881 231.835Z"   fill="#727785" >
</path>
<path d="M115.709 232.516C115.925 232.477 116.368 232.36 116.55 232.002C116.456 232.191 116.158 232.429 115.702 232.471L115.709 232.516Z"   fill="#727785" >
</path>
<path d="M106.122 230.615C106.352 230.835 106.449 231.137 106.466 231.43C106.483 231.734 106.626 232.115 106.956 232.255C107.285 232.394 107.654 231.729 107.124 231.113C106.905 230.858 106.699 230.682 106.122 230.615Z"   fill="#E5E6ED" >
</path>
<path d="M107.264 232.343C107.215 231.942 107.048 231.119 106.444 230.782C106.763 230.956 107.15 231.509 107.185 232.356L107.264 232.343Z"   fill="#727785" >
</path>
<path d="M107.019 231.469C107.049 231.378 107.097 231.185 107.001 231.051C107.052 231.121 107.079 231.279 107.001 231.464L107.019 231.469Z"   fill="#727785" >
</path>
<path d="M106.895 231.25C106.846 231.242 106.745 231.217 106.703 231.138C106.725 231.18 106.793 231.232 106.896 231.24L106.895 231.25Z"   fill="#727785" >
</path>
<path d="M107.126 231.767C107.178 231.687 107.274 231.512 107.216 231.358C107.248 231.439 107.233 231.598 107.11 231.757L107.126 231.767Z"   fill="#727785" >
</path>
<path d="M107.071 231.619C106.976 231.604 106.783 231.558 106.708 231.412C106.746 231.489 106.874 231.585 107.075 231.601L107.071 231.619Z"   fill="#727785" >
</path>
<path d="M107.168 232.021C107.041 231.996 106.781 231.924 106.677 231.712C106.73 231.824 106.904 231.966 107.172 231.994L107.168 232.021Z"   fill="#727785" >
</path>
<path d="M125.103 234.083C124.873 234.304 124.776 234.605 124.759 234.899C124.742 235.203 124.599 235.583 124.27 235.723C123.94 235.863 123.571 235.197 124.101 234.581C124.32 234.326 124.527 234.15 125.103 234.083Z"   fill="#E5E6ED" >
</path>
<path d="M123.961 235.811C124.011 235.41 124.178 234.587 124.782 234.25C124.463 234.424 124.075 234.977 124.04 235.824L123.961 235.811Z"   fill="#727785" >
</path>
<path d="M124.206 234.937C124.176 234.846 124.129 234.653 124.224 234.519C124.173 234.589 124.146 234.747 124.224 234.932L124.206 234.937Z"   fill="#727785" >
</path>
<path d="M124.33 234.718C124.379 234.71 124.48 234.686 124.522 234.606C124.501 234.648 124.432 234.7 124.329 234.708L124.33 234.718Z"   fill="#727785" >
</path>
<path d="M124.099 235.235C124.047 235.155 123.951 234.98 124.009 234.826C123.977 234.907 123.992 235.066 124.115 235.225L124.099 235.235Z"   fill="#727785" >
</path>
<path d="M124.154 235.088C124.249 235.073 124.442 235.026 124.517 234.88C124.479 234.957 124.351 235.054 124.15 235.069L124.154 235.088Z"   fill="#727785" >
</path>
<path d="M124.057 235.489C124.184 235.465 124.444 235.392 124.549 235.181C124.495 235.292 124.321 235.435 124.053 235.463L124.057 235.489Z"   fill="#727785" >
</path>
<path d="M101.705 197.429L107.872 197.429L121.887 241.157L87.6895 241.157L101.705 197.429Z"   fill="#FFFFFF" >
</path>
<path d="M107.872 197.429L101.705 197.429L96.0448 215.088L113.532 215.088L107.872 197.429ZM115.15 220.138L94.4262 220.138L92.3612 226.581L117.215 226.581L115.15 220.138ZM118.834 231.631L90.7427 231.631L87.6895 241.157L121.887 241.157L118.834 231.631Z" fill-rule="evenodd"  fill="#2F63FF" >
</path>
<rect x="79" y="241.15673828125" width="51.58" height="3.92"   fill="#2F63FF" >
</rect>
<path d="M120.539 236.952L89.037 236.952L87.6909 241.152L121.885 241.152L120.539 236.952Z" fill-rule="evenodd"  fill="#000000" fill-opacity="0.2">
</path>
<g mask="url(#mask-yAtLyrYp9SDbIVn-oHid7)">
<circle cx="72.27022460937499" cy="186.774619140625" r="52.415"   fill="#FFFFFF" fill-opacity="0.2">
</circle>
</g>
<path    stroke="rgba(32, 36, 46, 1)" stroke-width="4" stroke-linejoin="round" stroke-linecap="round"  d="M2 246.429L402 246.429">
</path>
<rect x="148.2142333984375" y="110.4287109375" width="5.64" height="134"   fill="#20242E" >
</rect>
<rect x="143" y="110.4287109375" width="8" height="134"   fill="#334680" >
</rect>
<rect x="256.142822265625" y="110.4287109375" width="5.64" height="134"   fill="#20242E" >
</rect>
<rect x="251" y="110.4287109375" width="8" height="134"   fill="#334680" >
</rect>
<rect x="123" y="121.4287109375" width="158" height="22.57"   fill="#2F63FF" >
</rect>
<path d="M133.098 121.429L123 121.429L123 143.999L124.189 143.999L133.098 121.429ZM137.167 143.999L146.076 121.429L163.005 121.429L154.096 143.999L137.167 143.999ZM167.074 143.999L184.003 143.999L192.912 121.429L175.983 121.429L167.074 143.999ZM205.891 121.429L196.981 143.999L213.91 143.999L222.819 121.429L205.891 121.429ZM235.798 121.429L226.889 143.999L243.817 143.999L252.726 121.429L235.798 121.429ZM265.705 121.429L256.796 143.999L273.724 143.999L281 125.567L281 121.429L265.705 121.429Z" fill-rule="evenodd"  fill="#FFFFFF" >
</path>
<g opacity="0.2">
<path d="M185.22 143.999L198.25 121.429L220.19 121.429L233.22 143.999L185.22 143.999Z" fill-rule="evenodd"  fill="#20242E" >
</path>
</g>
<g opacity="0.2">
<rect x="123" y="121.4287109375" width="158" height="2.39"   fill="#20242E" >
</rect>
</g>
<rect x="123" y="162.4287109375" width="158" height="22.57"   fill="#2F63FF" >
</rect>
<path d="M133.098 162.429L123 162.429L123 184.999L124.189 184.999L133.098 162.429ZM137.167 184.999L146.076 162.429L163.005 162.429L154.096 184.999L137.167 184.999ZM167.074 184.999L184.003 184.999L192.912 162.429L175.983 162.429L167.074 184.999ZM205.891 162.429L196.981 184.999L213.91 184.999L222.819 162.429L205.891 162.429ZM235.798 162.429L226.889 184.999L243.817 184.999L252.726 162.429L235.798 162.429ZM265.705 162.429L256.796 184.999L273.724 184.999L281 166.567L281 162.429L265.705 162.429Z" fill-rule="evenodd"  fill="#FFFFFF" >
</path>
<g opacity="0.2">
<path d="M244.016 162.429L248.061 169.436C251.223 174.913 247.271 181.759 240.947 181.759L175.493 181.759C169.169 181.759 165.217 174.913 168.379 169.436L172.424 162.429L244.016 162.429Z" fill-rule="evenodd"  fill="#20242E" >
</path>
</g>
<g opacity="0.2">
<rect x="123" y="162.4287109375" width="158" height="2.39"   fill="#20242E" >
</rect>
</g>
<path     fill="#2854D9"  d="M209.884 109.301L242.61 165.985C245.772 171.462 241.82 178.308 235.496 178.308L170.043 178.308C163.719 178.308 159.766 171.462 162.928 165.985L195.655 109.301C198.817 103.824 206.722 103.824 209.884 109.301Z">
</path>
<path     fill="#FFFFFF"  d="M208.335 107.752L241.061 164.436C244.223 169.913 240.271 176.759 233.947 176.759L168.493 176.759C162.169 176.759 158.217 169.913 161.379 164.436L194.105 107.752C197.267 102.275 205.173 102.275 208.335 107.752Z">
</path>
<path fill-rule="evenodd"  fill="rgba(47, 99, 255, 1)"  d="M241.061 164.436L208.335 107.752C205.173 102.275 197.267 102.275 194.105 107.752L161.379 164.436C158.217 169.913 162.169 176.759 168.493 176.759L233.947 176.759C240.271 176.759 244.223 169.913 241.061 164.436ZM197.178 109.526C198.974 106.414 203.466 106.414 205.262 109.526L237.988 166.21C239.785 169.321 237.539 173.211 233.947 173.211L168.493 173.211C164.901 173.211 162.655 169.321 164.452 166.21L197.178 109.526Z">
</path>
<g >
<path     fill="#2F63FF"  d="M191.077 162.074L188.617 162.074L188.617 167.204L186.097 167.204L186.097 162.074L176.257 162.074L176.257 159.164L185.377 146.384L188.617 146.384L188.617 159.794L191.077 159.794L191.077 162.074ZM186.097 159.794L186.097 149.144L185.917 149.144L178.537 159.614L178.537 159.794L186.097 159.794ZM201.067 167.504Q199.507 167.504 198.217 167.039Q196.927 166.574 195.997 165.374Q195.067 164.174 194.557 162.089Q194.047 160.004 194.047 156.794Q194.047 153.584 194.557 151.514Q195.067 149.444 195.997 148.229Q196.927 147.014 198.217 146.549Q199.507 146.084 201.067 146.084Q202.627 146.084 203.932 146.549Q205.237 147.014 206.167 148.229Q207.097 149.444 207.607 151.514Q208.117 153.584 208.117 156.794Q208.117 160.004 207.607 162.089Q207.097 164.174 206.167 165.374Q205.237 166.574 203.932 167.039Q202.627 167.504 201.067 167.504ZM201.067 165.254Q202.177 165.254 202.987 164.879Q203.797 164.504 204.337 163.544Q204.877 162.584 205.132 160.949Q205.387 159.314 205.387 156.794Q205.387 154.304 205.132 152.669Q204.877 151.034 204.337 150.074Q203.797 149.114 202.987 148.739Q202.177 148.364 201.067 148.364Q199.987 148.364 199.177 148.739Q198.367 149.114 197.842 150.074Q197.317 151.034 197.062 152.669Q196.807 154.304 196.807 156.794Q196.807 159.314 197.062 160.949Q197.317 162.584 197.842 163.544Q198.367 164.504 199.177 164.879Q199.987 165.254 201.067 165.254ZM225.577 162.074L223.117 162.074L223.117 167.204L220.597 167.204L220.597 162.074L210.757 162.074L210.757 159.164L219.877 146.384L223.117 146.384L223.117 159.794L225.577 159.794L225.577 162.074ZM220.597 159.794L220.597 149.144L220.417 149.144L213.037 159.614L213.037 159.794L220.597 159.794Z">
</path>
</g>
<g >
<path     fill="#2F63FF"  d="M193.578 135.187L195.334 135.187L195.866 124.862L195.92 121.722L192.992 121.722L193.046 124.862L193.578 135.187ZM194.456 141.76C195.387 141.76 196.159 141.068 196.159 140.004C196.159 138.939 195.387 138.221 194.456 138.221C193.525 138.221 192.753 138.939 192.753 140.004C192.753 141.068 193.498 141.76 194.456 141.76Z">
</path>
</g>
<defs>
<mask id="mask-yAtLyrYp9SDbIVn-oHid7" style="mask-type:alpha" maskUnits="userSpaceOnUse">
<path d="M107.872 197.429L101.705 197.429L96.0448 215.088L113.532 215.088L107.872 197.429ZM115.15 220.138L94.4262 220.138L92.3612 226.581L117.215 226.581L115.15 220.138ZM118.834 231.631L90.7427 231.631L87.6895 241.157L121.887 241.157L118.834 231.631Z" fill-rule="evenodd"  fill="#2F63FF" >
</path>
<rect x="79" y="241.15673828125" width="51.58" height="3.92"   fill="#2F63FF" >
</rect>
<path d="M120.539 236.952L89.037 236.952L87.6909 241.152L121.885 241.152L120.539 236.952Z" fill-rule="evenodd"  fill="#000000" fill-opacity="0.2">
</path>
</mask>
</defs>
</svg>
