<svg xmlns="http://www.w3.org/2000/svg" xmlns:xlink="http://www.w3.org/1999/xlink" width="404" height="248.4296875" viewBox="0 0 404 248.4296875" fill="none">
<path d="M316.902 246.429C338.807 220.355 352 186.718 352 150C352 67.1573 284.843 0 202 0C119.157 0 52 67.1573 52 150C52 186.718 65.1932 220.355 87.0977 246.429L316.902 246.429Z" fill-rule="evenodd"  fill="#F0F3FD" >
</path>
<g opacity="0.15">
<path d="M263.488 106.067L261.579 108.338C261.415 108.533 261.309 108.769 261.272 109.02L256.451 141.836C256.36 142.45 256.695 143.049 257.266 143.294L261.579 145.142C261.758 145.219 261.941 145.254 262.119 145.254L262.119 155.723C262.119 156.102 262.425 156.408 262.804 156.408C263.182 156.408 263.489 156.102 263.489 155.723L263.489 136.543C263.489 136.537 263.489 136.53 263.488 136.523L263.488 106.067Z" fill-rule="evenodd"  fill="#A4A4A4" >
</path>
<path d="M263.488 105.382L261.579 107.653C261.415 107.847 261.309 108.084 261.272 108.335L256.451 141.151C256.36 141.765 256.695 142.364 257.266 142.609L261.579 144.457C261.758 144.534 261.941 144.569 262.119 144.569L262.119 155.039C262.119 155.417 262.425 155.724 262.804 155.724C263.182 155.724 263.489 155.417 263.489 155.039L263.489 135.859C263.489 135.852 263.489 135.845 263.488 135.839L263.488 105.382Z" fill-rule="evenodd"  fill="#C4C4C4" >
</path>
<path d="M219.826 179.518L222.747 180.037C222.998 180.081 223.256 180.055 223.492 179.961L254.321 167.729C254.899 167.5 255.25 166.911 255.176 166.294L254.621 161.634C254.598 161.441 254.537 161.265 254.448 161.111L263.515 155.876C263.842 155.687 263.955 155.268 263.765 154.941C263.576 154.613 263.157 154.501 262.83 154.69L246.219 164.28C246.214 164.283 246.208 164.287 246.202 164.29L219.826 179.518Z" fill-rule="evenodd"  fill="#A4A4A4" >
</path>
<path d="M219.484 179.176L222.405 179.694C222.655 179.739 222.913 179.712 223.149 179.619L253.979 167.387C254.556 167.157 254.907 166.568 254.834 165.951L254.278 161.292C254.255 161.099 254.195 160.923 254.106 160.768L263.172 155.534C263.5 155.345 263.612 154.926 263.423 154.598C263.234 154.27 262.815 154.158 262.487 154.347L245.877 163.937C245.871 163.941 245.865 163.944 245.86 163.948L219.484 179.176Z" fill-rule="evenodd"  fill="#C4C4C4" >
</path>
<path d="M305.712 181.175L304.7 178.386C304.614 178.146 304.462 177.936 304.263 177.778L278.255 157.196C277.767 156.81 277.082 156.801 276.584 157.173L272.827 159.984C272.671 160.1 272.549 160.241 272.46 160.395L263.393 155.16C263.065 154.971 262.646 155.083 262.457 155.411C262.268 155.738 262.38 156.157 262.708 156.346L279.318 165.936L279.328 165.942L305.712 181.175Z" fill-rule="evenodd"  fill="#A4A4A4" >
</path>
<path d="M305.712 180.489L304.7 177.7C304.614 177.461 304.462 177.251 304.263 177.093L278.255 156.51C277.767 156.125 277.082 156.116 276.584 156.488L272.827 159.299C272.671 159.415 272.549 159.556 272.46 159.71L263.393 154.475C263.065 154.286 262.646 154.398 262.457 154.726C262.268 155.053 262.38 155.472 262.708 155.662L279.318 165.252C279.324 165.255 279.33 165.258 279.336 165.261L305.712 180.489Z" fill-rule="evenodd"  fill="#C4C4C4" >
</path>
<path d="M264.564 157.81C265.543 157.392 266.229 156.42 266.229 155.289C266.229 153.776 265.002 152.549 263.489 152.549C261.976 152.549 260.749 153.776 260.749 155.289C260.749 156.42 261.434 157.391 262.413 157.809L256.982 248.429L269.995 248.429L264.564 157.81Z" fill-rule="evenodd"  fill="#A4A4A4" >
</path>
<path d="M263.879 157.81C264.858 157.392 265.544 156.42 265.544 155.289C265.544 153.776 264.317 152.549 262.804 152.549C261.291 152.549 260.064 153.776 260.064 155.289C260.064 156.42 260.75 157.391 261.728 157.809L256.297 248.429L269.31 248.429L263.879 157.81Z" fill-rule="evenodd"  fill="#C4C4C4" >
</path>
</g>
<g opacity="0.6">
<rect  x="56" y="122.4287109375" width="26.71" height="63" rx="13.355"    fill="#E9EBF2" >
</rect>
<rect  x="68.7589111328125" y="147.9462890625" width="1.59" height="98.48" rx="0.795"    fill="#E1E2E5" >
</rect>
<rect  x="75.33837890625" y="151.4482421875" width="1.59" height="13.44" transform="rotate(30.000000445292045 75.33837890625 151.4482421875)" rx="0.795"    fill="#E1E2E5" >
</rect>
<rect  transform="matrix(0.8660253882408142, -0.5, -0.5, -0.8660253882408142, 69.200927734375, 172.9189453125)" x="0" y="0" width="1.59" height="18.91" rx="0.795"    fill="#E1E2E5" >
</rect>
</g>
<rect  x="91" y="70.4287109375" width="38.2" height="90.08" rx="19.1"    fill="#E9EBF2" >
</rect>
<rect  x="109.2445068359375" y="106.91748046875" width="2.28" height="140.82" rx="1.14"    fill="#E1E2E5" >
</rect>
<rect  x="118.6529541015625" y="111.9248046875" width="2.28" height="19.22" transform="rotate(30.000000445292045 118.6529541015625 111.9248046875)" rx="1.14"    fill="#E1E2E5" >
</rect>
<rect  transform="matrix(0.8660253882408142, -0.5, -0.5, -0.8660253882408142, 109.8765869140625, 142.627197265625)" x="0" y="0" width="2.28" height="27.04" rx="1.14"    fill="#E1E2E5" >
</rect>
<g opacity="0.8">
<path d="M141.993 49.5668C141.995 49.4977 141.996 49.4283 141.996 49.3587C141.996 44.9791 138.445 41.4287 134.066 41.4287C129.686 41.4287 126.136 44.9791 126.136 49.3587C126.136 49.4284 126.136 49.4979 126.138 49.5671C126.069 49.5653 126 49.5644 125.93 49.5644C121.55 49.5644 118 53.1148 118 57.4944C118 61.874 121.55 65.4244 125.93 65.4244C125.999 65.4244 126.067 65.4235 126.136 65.4218L126.136 65.4288L141.996 65.4288L141.996 65.4219C146.282 65.3152 149.724 61.8068 149.724 57.4944C149.724 53.1812 146.281 49.6722 141.993 49.5668Z" fill-rule="evenodd"  fill="#FFFFFF" >
</path>
</g>
<g opacity="0.6">
<path d="M288.101 73.4299C288.102 73.3955 288.103 73.3609 288.103 73.3262C288.103 71.117 286.312 69.3262 284.103 69.3262C281.894 69.3262 280.103 71.117 280.103 73.3262C280.103 73.3609 280.103 73.3955 280.104 73.43C280.069 73.4291 280.035 73.4287 280 73.4287C277.791 73.4287 276 75.2195 276 77.4287C276 79.6378 277.791 81.4287 280 81.4287C280.057 81.4287 280.114 81.4275 280.171 81.4251L287.829 81.4251C287.885 81.4275 287.943 81.4287 288 81.4287C290.209 81.4287 292 79.6378 292 77.4287C292 75.2535 290.264 73.4838 288.101 73.4299Z" fill-rule="evenodd"  fill="#FFFFFF" >
</path>
</g>
<path d="M245.788 22.1159C243.805 17.5904 239.287 14.4287 234.03 14.4287C226.944 14.4287 221.2 20.1729 221.2 27.2587C221.2 27.3588 221.201 27.4585 221.203 27.558C218.235 28.159 216 30.7829 216 33.9287C216 37.5186 218.91 40.4287 222.5 40.4287L260.98 40.4287C264.57 40.4287 267.48 37.5186 267.48 33.9287C267.48 30.3389 264.57 27.4287 260.98 27.4287L258.042 27.4287C257.517 23.6198 254.249 20.6863 250.296 20.6863C248.617 20.6863 247.062 21.2154 245.788 22.1159Z" fill-rule="evenodd"  fill="#FFFFFF" >
</path>
<g opacity="0.6">
<path d="M143.153 110.563C142.344 108.718 140.5 107.429 138.356 107.429C135.465 107.429 133.121 109.772 133.121 112.664C133.121 112.704 133.122 112.744 133.123 112.784C131.912 113.029 131 114.099 131 115.382C131 116.845 132.186 118.032 133.65 118.032L149.35 118.032C150.814 118.032 152 116.845 152 115.382C152 113.918 150.814 112.732 149.35 112.732L148.15 112.732C147.936 111.178 146.603 109.981 144.99 109.981C144.306 109.981 143.672 110.197 143.153 110.563Z" fill-rule="evenodd"  fill="#FFFFFF" >
</path>
</g>
<path d="M320.385 24.5684L317.382 28.1387C317.124 28.4447 316.957 28.8164 316.899 29.212L309.318 80.8131C309.176 81.7798 309.702 82.721 310.6 83.1059L317.382 86.0124C317.663 86.1329 317.951 86.1887 318.231 86.1889L318.231 102.65C318.231 103.243 318.712 103.725 319.306 103.725C319.899 103.725 320.381 103.243 320.381 102.65L320.381 84.1656C320.383 84.1217 320.385 84.0774 320.385 84.0327L320.385 24.5684Z" fill-rule="evenodd"  fill="#DCDFE5" >
</path>
<path d="M320.385 23.4915L317.382 27.0618C317.124 27.3678 316.957 27.7395 316.899 28.1351L309.318 79.7362C309.176 80.7029 309.702 81.6441 310.6 82.029L317.382 84.9355C317.663 85.056 317.951 85.1118 318.231 85.112L318.231 101.573C318.231 102.166 318.712 102.648 319.306 102.648C319.899 102.648 320.381 102.166 320.381 101.573L320.381 83.0887C320.383 83.0448 320.385 83.0005 320.385 82.9558L320.385 23.4915Z" fill-rule="evenodd"  fill="#E9EBF2" >
</path>
<path d="M251.727 140.069L256.32 140.884C256.714 140.954 257.119 140.913 257.491 140.765L305.97 121.53C306.878 121.17 307.43 120.243 307.314 119.273L306.44 111.947C306.404 111.643 306.309 111.366 306.169 111.124L320.424 102.893C320.938 102.596 321.114 101.939 320.817 101.425C320.521 100.911 319.863 100.735 319.349 101.031L303.34 110.274C303.301 110.294 303.263 110.314 303.224 110.336L251.727 140.069Z" fill-rule="evenodd"  fill="#DCDFE5" >
</path>
<path d="M251.188 139.53L255.782 140.345C256.175 140.415 256.581 140.374 256.952 140.227L305.431 120.992C306.339 120.631 306.891 119.705 306.775 118.735L305.901 111.408C305.865 111.104 305.77 110.828 305.63 110.585L319.885 102.355C320.4 102.058 320.576 101.4 320.279 100.886C319.982 100.372 319.325 100.196 318.81 100.493L302.801 109.736C302.763 109.755 302.724 109.776 302.686 109.798L251.188 139.53Z" fill-rule="evenodd"  fill="#E9EBF2" >
</path>
<path d="M386.78 142.673L385.189 138.287C385.053 137.911 384.815 137.581 384.501 137.332L343.604 104.966C342.838 104.36 341.759 104.345 340.977 104.93L335.069 109.351C334.824 109.534 334.632 109.755 334.492 109.997L320.237 101.767C319.722 101.47 319.065 101.646 318.768 102.16C318.471 102.674 318.647 103.332 319.162 103.629L335.171 112.872C335.207 112.895 335.244 112.918 335.282 112.94L386.78 142.673Z" fill-rule="evenodd"  fill="#DCDFE5" >
</path>
<path d="M386.78 141.596L385.189 137.21C385.053 136.834 384.815 136.504 384.501 136.255L343.604 103.889C342.838 103.283 341.759 103.268 340.977 103.854L335.069 108.274C334.824 108.457 334.632 108.678 334.492 108.92L320.237 100.69C319.722 100.393 319.065 100.569 318.768 101.083C318.471 101.598 318.647 102.255 319.162 102.552L335.171 111.795C335.207 111.818 335.244 111.841 335.282 111.864L386.78 141.596Z" fill-rule="evenodd"  fill="#E9EBF2" >
</path>
<path d="M322.076 105.936C323.617 105.279 324.697 103.75 324.697 101.969C324.697 99.5891 322.767 97.6594 320.387 97.6594C318.007 97.6594 316.077 99.5891 316.077 101.969C316.077 103.748 317.155 105.276 318.693 105.934L310.154 248.429L330.615 248.429L322.076 105.936Z" fill-rule="evenodd"  fill="#DCDFE5" >
</path>
<path d="M321 105.936C322.54 105.279 323.62 103.75 323.62 101.969C323.62 99.5891 321.69 97.6594 319.31 97.6594C316.93 97.6594 315 99.5891 315 101.969C315 103.748 316.078 105.276 317.616 105.934L309.077 248.429L329.538 248.429L321 105.936Z" fill-rule="evenodd"  fill="#E9EBF2" >
</path>
<path d="M320.967 245.429L331.906 245.429C334.319 245.429 336.96 244.949 333.376 242.941C336.394 242.941 339.45 241.229 333.981 240.316C336.244 238.855 336.244 234.108 330.775 236.482C333.981 231.004 328.7 228.447 325.683 233.56C324.174 228.63 316.441 226.804 318.704 235.569C315.082 233.56 309.801 238.376 316.968 240.932C313.761 241.663 308.293 245.429 320.967 245.429Z"   fill="#D7D8DE" >
</path>
<path d="M272.967 245.429L283.906 245.429C286.319 245.429 288.96 244.949 285.376 242.941C288.394 242.941 291.45 241.229 285.981 240.316C288.244 238.855 288.244 234.108 282.775 236.482C285.981 231.004 280.7 228.447 277.683 233.56C276.174 228.63 268.441 226.804 270.704 235.569C267.082 233.56 261.801 238.376 268.968 240.932C265.761 241.663 260.293 245.429 272.967 245.429Z"   fill="#D7D8DE" >
</path>
<path d="M295.116 246.429L316.538 246.429C321.263 246.429 326.434 245.53 319.416 241.764C325.326 241.764 331.312 238.554 320.601 236.843C325.033 234.104 325.033 225.202 314.322 229.653C320.601 219.382 310.259 214.589 304.35 224.175C301.395 214.931 286.252 211.508 290.684 227.941C283.59 224.175 273.248 233.205 287.283 237.998C281.004 239.367 270.296 246.429 295.116 246.429Z"   fill="#E1E1E5" >
</path>
<path d="M271.992 223.572C272.842 224.259 273.26 225.262 273.403 226.26C273.552 227.293 274.151 228.551 275.318 228.933C276.486 229.315 277.553 226.932 275.561 224.982C274.738 224.175 273.981 223.633 271.992 223.572Z"   fill="#E5E6ED" >
</path>
<path d="M276.398 229.146C276.112 227.79 275.302 225.025 273.138 224.049C274.28 224.551 275.766 226.329 276.133 229.213L276.398 229.146Z"   fill="#727785" >
</path>
<path d="M275.306 226.23C275.382 225.911 275.488 225.235 275.123 224.807C275.317 225.03 275.455 225.562 275.242 226.218L275.306 226.23Z"   fill="#727785" >
</path>
<path d="M274.817 225.517C274.647 225.505 274.296 225.45 274.128 225.189C274.215 225.327 274.463 225.486 274.819 225.482L274.817 225.517Z"   fill="#727785" >
</path>
<path d="M275.758 227.216C275.914 226.926 276.19 226.301 275.948 225.793C276.078 226.059 276.075 226.609 275.7 227.187L275.758 227.216Z"   fill="#727785" >
</path>
<path d="M275.528 226.728C275.2 226.705 274.524 226.603 274.225 226.125C274.379 226.378 274.845 226.67 275.535 226.664L275.528 226.728Z"   fill="#727785" >
</path>
<path d="M275.975 228.073C275.534 228.026 274.625 227.855 274.206 227.162C274.423 227.528 275.058 227.964 275.982 227.981L275.975 228.073Z"   fill="#727785" >
</path>
<path d="M334.489 226.96C333.419 227.186 332.591 227.889 332.01 228.713C331.408 229.566 330.303 230.414 329.089 230.224C327.876 230.033 328.009 227.426 330.669 226.594C331.769 226.25 332.69 226.111 334.489 226.96Z"   fill="#E5E6ED" >
</path>
<path d="M328.031 229.922C328.902 228.844 330.88 226.75 333.251 226.864C332.006 226.792 329.874 227.7 328.236 230.102L328.031 229.922Z"   fill="#727785" >
</path>
<path d="M330.329 227.822C330.407 227.502 330.619 226.853 331.139 226.637C330.865 226.747 330.499 227.158 330.392 227.84L330.329 227.822Z"   fill="#727785" >
</path>
<path d="M331.089 227.41C331.245 227.475 331.583 227.586 331.851 227.431C331.711 227.514 331.417 227.543 331.103 227.377L331.089 227.41Z"   fill="#727785" >
</path>
<path d="M329.478 228.494C329.471 228.166 329.509 227.483 329.956 227.141C329.719 227.318 329.472 227.809 329.543 228.496L329.478 228.494Z"   fill="#727785" >
</path>
<path d="M329.905 228.165C330.208 228.293 330.856 228.509 331.339 228.22C331.087 228.374 330.539 228.423 329.928 228.104L329.905 228.165Z"   fill="#727785" >
</path>
<path d="M328.895 229.159C329.309 229.318 330.197 229.579 330.885 229.152C330.526 229.38 329.762 229.479 328.931 229.074L328.895 229.159Z"   fill="#727785" >
</path>
<path d="M310.313 209.569C309.516 210.316 309.171 211.347 309.101 212.352C309.029 213.394 308.522 214.692 307.386 215.158C306.249 215.624 305.012 213.325 306.856 211.235C307.619 210.371 308.335 209.775 310.313 209.569Z"   fill="#E5E6ED" >
</path>
<path d="M306.324 215.449C306.511 214.075 307.118 211.259 309.205 210.129C308.103 210.711 306.75 212.593 306.594 215.496L306.324 215.449Z"   fill="#727785" >
</path>
<path d="M307.202 212.461C307.103 212.148 306.948 211.482 307.281 211.028C307.103 211.265 307.004 211.806 307.265 212.444L307.202 212.461Z"   fill="#727785" >
</path>
<path d="M307.638 211.715C307.806 211.69 308.152 211.61 308.301 211.338C308.224 211.481 307.988 211.658 307.633 211.68L307.638 211.715Z"   fill="#727785" >
</path>
<path d="M306.822 213.478C306.646 213.2 306.325 212.597 306.529 212.072C306.419 212.347 306.462 212.895 306.878 213.445L306.822 213.478Z"   fill="#727785" >
</path>
<path d="M307.017 212.974C307.342 212.927 308.009 212.776 308.272 212.278C308.137 212.541 307.693 212.867 307.005 212.911L307.017 212.974Z"   fill="#727785" >
</path>
<path d="M306.668 214.348C307.104 214.27 307.999 214.033 308.366 213.311C308.177 213.692 307.575 214.172 306.654 214.257L306.668 214.348Z"   fill="#727785" >
</path>
<path d="M286.807 211.511C287.271 211.956 287.466 212.565 287.5 213.157C287.535 213.771 287.824 214.538 288.489 214.821C289.155 215.103 289.899 213.759 288.829 212.516C288.387 212.002 287.97 211.647 286.807 211.511Z"   fill="#E5E6ED" >
</path>
<path d="M289.112 214.999C289.012 214.19 288.675 212.529 287.456 211.848C288.1 212.199 288.882 213.316 288.953 215.025L289.112 214.999Z"   fill="#727785" >
</path>
<path d="M288.617 213.236C288.678 213.052 288.774 212.661 288.581 212.392C288.684 212.532 288.738 212.851 288.58 213.225L288.617 213.236Z"   fill="#727785" >
</path>
<path d="M288.366 212.793C288.267 212.777 288.064 212.727 287.979 212.566C288.023 212.651 288.16 212.757 288.369 212.773L288.366 212.793Z"   fill="#727785" >
</path>
<path d="M288.833 213.836C288.939 213.674 289.132 213.321 289.016 213.011C289.078 213.173 289.049 213.496 288.8 213.816L288.833 213.836Z"   fill="#727785" >
</path>
<path d="M288.722 213.539C288.531 213.508 288.14 213.415 287.989 213.12C288.067 213.275 288.325 213.47 288.73 213.501L288.722 213.539Z"   fill="#727785" >
</path>
<path d="M288.917 214.349C288.661 214.3 288.136 214.154 287.926 213.727C288.034 213.952 288.385 214.239 288.926 214.296L288.917 214.349Z"   fill="#727785" >
</path>
<path d="M64.9758 246.429L75.5896 246.429C77.9306 246.429 80.4925 245.983 77.0156 244.117C79.9435 244.117 82.9094 242.527 77.6025 241.679C79.7985 240.322 79.7985 235.912 74.4916 238.117C77.6025 233.028 72.4786 230.653 69.5507 235.403C68.0867 230.823 60.5839 229.127 62.7798 237.269C59.2649 235.403 54.141 239.877 61.0949 242.252C57.984 242.93 52.6784 246.429 64.9758 246.429Z"   fill="#EDEEF2" >
</path>
<path d="M76.0565 245.933L81.4763 245.933C82.6717 245.933 83.9799 245.696 82.2044 244.701C83.6995 244.701 85.2141 243.852 82.5042 243.4C83.6255 242.676 83.6255 240.324 80.9156 241.5C82.5042 238.786 79.8877 237.52 78.3926 240.053C77.645 237.61 73.8138 236.706 74.9351 241.048C73.1403 240.053 70.5238 242.439 74.0747 243.705C72.4862 244.067 69.777 245.933 76.0565 245.933Z"   fill="#DFE0E5" >
</path>
<path d="M56.0183 233.009C56.5483 233.121 56.9587 233.469 57.2465 233.877C57.5447 234.3 58.0925 234.72 58.6938 234.626C59.295 234.531 59.2291 233.24 57.9112 232.827C57.3659 232.657 56.9099 232.588 56.0183 233.009Z"   fill="#E5E6ED" >
</path>
<path d="M59.2181 234.476C58.7865 233.942 57.8063 232.905 56.6318 232.961C57.2484 232.925 58.3047 233.375 59.1162 234.565L59.2181 234.476Z"   fill="#727785" >
</path>
<path d="M58.0793 233.436C58.0408 233.278 57.9357 232.956 57.678 232.849C57.8139 232.903 57.9949 233.107 58.0484 233.445L58.0793 233.436Z"   fill="#727785" >
</path>
<path d="M57.7031 233.231C57.6254 233.264 57.458 233.319 57.3253 233.242C57.3946 233.283 57.5401 233.297 57.696 233.215L57.7031 233.231Z"   fill="#727785" >
</path>
<path d="M58.5011 233.769C58.5047 233.606 58.486 233.268 58.2645 233.098C58.3817 233.186 58.5042 233.429 58.469 233.769L58.5011 233.769Z"   fill="#727785" >
</path>
<path d="M58.2896 233.606C58.1395 233.669 57.8182 233.776 57.5789 233.633C57.7038 233.709 57.9752 233.734 58.2783 233.575L58.2896 233.606Z"   fill="#727785" >
</path>
<path d="M58.7898 234.098C58.585 234.177 58.1449 234.306 57.8041 234.095C57.9821 234.208 58.3605 234.257 58.7723 234.056L58.7898 234.098Z"   fill="#727785" >
</path>
<path d="M83.2069 236.477C82.677 236.589 82.2665 236.937 81.9787 237.345C81.6805 237.768 81.1327 238.188 80.5315 238.094C79.9302 237.999 79.9961 236.708 81.3141 236.295C81.8593 236.125 82.3153 236.056 83.2069 236.477Z"   fill="#E5E6ED" >
</path>
<path d="M80.0071 237.945C80.4387 237.411 81.4189 236.373 82.5934 236.43C81.9769 236.394 80.9205 236.844 80.109 238.034L80.0071 237.945Z"   fill="#727785" >
</path>
<path d="M81.1458 236.904C81.1843 236.745 81.2894 236.423 81.5471 236.316C81.4112 236.371 81.2302 236.575 81.1767 236.912L81.1458 236.904Z"   fill="#727785" >
</path>
<path d="M81.5221 236.699C81.5998 236.732 81.7672 236.787 81.8999 236.71C81.8306 236.751 81.6851 236.765 81.5292 236.684L81.5221 236.699Z"   fill="#727785" >
</path>
<path d="M80.7241 237.237C80.7205 237.074 80.7392 236.736 80.9607 236.566C80.8435 236.654 80.721 236.898 80.7563 237.238L80.7241 237.237Z"   fill="#727785" >
</path>
<path d="M80.9356 237.074C81.0857 237.137 81.407 237.244 81.6464 237.101C81.5214 237.178 81.25 237.202 80.947 237.044L80.9356 237.074Z"   fill="#727785" >
</path>
<path d="M80.4354 237.566C80.6402 237.645 81.0803 237.774 81.4211 237.562C81.2431 237.675 80.8647 237.724 80.4529 237.524L80.4354 237.566Z"   fill="#727785" >
</path>
<path d="M71.5146 230.148C71.1193 230.518 70.9487 231.029 70.914 231.527C70.878 232.043 70.6271 232.687 70.064 232.917C69.5008 233.148 68.888 232.009 69.8016 230.974C70.1796 230.545 70.5341 230.25 71.5146 230.148Z"   fill="#E5E6ED" >
</path>
<path d="M69.5382 233.061C69.6307 232.381 69.9316 230.986 70.9653 230.425C70.4194 230.714 69.7491 231.646 69.6716 233.085L69.5382 233.061Z"   fill="#727785" >
</path>
<path d="M69.9731 231.581C69.9239 231.426 69.8471 231.096 70.0121 230.871C69.9242 230.988 69.8749 231.256 70.0041 231.573L69.9731 231.581Z"   fill="#727785" >
</path>
<path d="M70.1889 231.211C70.2723 231.199 70.4439 231.159 70.5175 231.024C70.4795 231.096 70.3624 231.183 70.1867 231.194L70.1889 231.211Z"   fill="#727785" >
</path>
<path d="M69.785 232.084C69.6975 231.947 69.5383 231.648 69.6398 231.388C69.5851 231.524 69.6064 231.796 69.8127 232.068L69.785 232.084Z"   fill="#727785" >
</path>
<path d="M69.8813 231.835C70.0425 231.812 70.3728 231.737 70.5033 231.49C70.4361 231.62 70.2164 231.782 69.8754 231.804L69.8813 231.835Z"   fill="#727785" >
</path>
<path d="M69.7085 232.516C69.9245 232.477 70.368 232.36 70.5498 232.002C70.456 232.191 70.1578 232.429 69.7016 232.471L69.7085 232.516Z"   fill="#727785" >
</path>
<path d="M60.1225 230.615C60.3523 230.836 60.449 231.137 60.4658 231.431C60.4832 231.735 60.6261 232.115 60.9557 232.255C61.2854 232.395 61.6543 231.729 61.1243 231.113C60.905 230.858 60.6986 230.682 60.1225 230.615Z"   fill="#E5E6ED" >
</path>
<path d="M61.264 232.343C61.2146 231.942 61.0477 231.119 60.4436 230.782C60.7627 230.956 61.1503 231.51 61.1854 232.356L61.264 232.343Z"   fill="#727785" >
</path>
<path d="M61.019 231.469C61.049 231.378 61.0967 231.184 61.0012 231.051C61.0521 231.12 61.0791 231.278 61.0008 231.464L61.019 231.469Z"   fill="#727785" >
</path>
<path d="M60.8947 231.25C60.8457 231.242 60.745 231.217 60.7028 231.138C60.7246 231.18 60.7928 231.232 60.8961 231.24L60.8947 231.25Z"   fill="#727785" >
</path>
<path d="M61.1259 231.767C61.1784 231.687 61.2743 231.512 61.2164 231.358C61.2476 231.439 61.2331 231.598 61.1097 231.757L61.1259 231.767Z"   fill="#727785" >
</path>
<path d="M61.0711 231.62C60.9764 231.605 60.7826 231.558 60.7076 231.412C60.7462 231.489 60.8743 231.586 61.0748 231.601L61.0711 231.62Z"   fill="#727785" >
</path>
<path d="M61.1677 232.021C61.0409 231.997 60.7809 231.925 60.6765 231.713C60.7303 231.825 60.904 231.967 61.1721 231.995L61.1677 232.021Z"   fill="#727785" >
</path>
<path d="M79.1028 234.083C78.8729 234.303 78.7763 234.605 78.7595 234.898C78.7421 235.202 78.5991 235.583 78.2695 235.723C77.9398 235.862 77.571 235.197 78.101 234.581C78.3202 234.326 78.5266 234.15 79.1028 234.083Z"   fill="#E5E6ED" >
</path>
<path d="M77.9612 235.811C78.0106 235.41 78.1775 234.587 78.7816 234.25C78.4625 234.424 78.075 234.977 78.0398 235.824L77.9612 235.811Z"   fill="#727785" >
</path>
<path d="M78.2062 234.938C78.1762 234.847 78.1286 234.653 78.224 234.52C78.1732 234.589 78.1461 234.747 78.2244 234.932L78.2062 234.938Z"   fill="#727785" >
</path>
<path d="M78.3305 234.718C78.3795 234.71 78.4802 234.686 78.5225 234.606C78.5006 234.648 78.4324 234.7 78.3291 234.708L78.3305 234.718Z"   fill="#727785" >
</path>
<path d="M78.0992 235.235C78.0467 235.155 77.9508 234.98 78.0087 234.826C77.9775 234.907 77.992 235.066 78.1154 235.225L78.0992 235.235Z"   fill="#727785" >
</path>
<path d="M78.154 235.087C78.2487 235.072 78.4425 235.026 78.5175 234.88C78.4789 234.957 78.3508 235.053 78.1503 235.069L78.154 235.087Z"   fill="#727785" >
</path>
<path d="M78.0575 235.489C78.1843 235.465 78.4443 235.392 78.5487 235.181C78.4949 235.292 78.3212 235.435 78.0531 235.463L78.0575 235.489Z"   fill="#727785" >
</path>
<path d="M105.976 246.429L116.59 246.429C118.931 246.429 121.493 245.983 118.016 244.117C120.943 244.117 123.909 242.527 118.603 241.679C120.799 240.322 120.799 235.912 115.492 238.117C118.603 233.028 113.479 230.653 110.551 235.403C109.087 230.823 101.584 229.127 103.78 237.269C100.265 235.403 95.141 239.877 102.095 242.252C98.984 242.93 93.6784 246.429 105.976 246.429Z"   fill="#EDEEF2" >
</path>
<path d="M117.056 245.933L122.476 245.933C123.672 245.933 124.98 245.696 123.204 244.701C124.7 244.701 126.214 243.852 123.504 243.4C124.626 242.676 124.626 240.324 121.916 241.5C123.504 238.786 120.888 237.52 119.393 240.053C118.645 237.61 114.814 236.706 115.935 241.048C114.14 240.053 111.524 242.439 115.075 243.705C113.486 244.067 110.777 245.933 117.056 245.933Z"   fill="#DFE0E5" >
</path>
<path d="M97.0183 233.009C97.5483 233.121 97.9587 233.469 98.2465 233.877C98.5447 234.3 99.0925 234.72 99.6938 234.626C100.295 234.531 100.229 233.24 98.9112 232.827C98.3659 232.657 97.9099 232.588 97.0183 233.009Z"   fill="#E5E6ED" >
</path>
<path d="M100.218 234.476C99.7865 233.942 98.8063 232.905 97.6318 232.961C98.2484 232.925 99.3047 233.375 100.116 234.565L100.218 234.476Z"   fill="#727785" >
</path>
<path d="M99.0793 233.436C99.0408 233.278 98.9357 232.956 98.678 232.849C98.8139 232.903 98.9949 233.107 99.0484 233.445L99.0793 233.436Z"   fill="#727785" >
</path>
<path d="M98.7031 233.231C98.6254 233.264 98.458 233.319 98.3253 233.242C98.3946 233.283 98.5401 233.297 98.696 233.215L98.7031 233.231Z"   fill="#727785" >
</path>
<path d="M99.5011 233.769C99.5047 233.606 99.486 233.268 99.2645 233.098C99.3817 233.186 99.5042 233.429 99.469 233.769L99.5011 233.769Z"   fill="#727785" >
</path>
<path d="M99.2896 233.606C99.1395 233.669 98.8182 233.776 98.5789 233.633C98.7038 233.709 98.9752 233.734 99.2783 233.575L99.2896 233.606Z"   fill="#727785" >
</path>
<path d="M99.7898 234.098C99.585 234.177 99.1449 234.306 98.8041 234.095C98.9821 234.208 99.3605 234.257 99.7723 234.056L99.7898 234.098Z"   fill="#727785" >
</path>
<path d="M124.207 236.477C123.677 236.589 123.267 236.937 122.979 237.345C122.681 237.768 122.133 238.188 121.531 238.094C120.93 237.999 120.996 236.708 122.314 236.295C122.859 236.125 123.315 236.056 124.207 236.477Z"   fill="#E5E6ED" >
</path>
<path d="M121.007 237.945C121.439 237.411 122.419 236.373 123.593 236.43C122.977 236.394 121.921 236.844 121.109 238.034L121.007 237.945Z"   fill="#727785" >
</path>
<path d="M122.146 236.904C122.184 236.745 122.289 236.423 122.547 236.316C122.411 236.371 122.23 236.575 122.177 236.912L122.146 236.904Z"   fill="#727785" >
</path>
<path d="M122.522 236.699C122.6 236.732 122.767 236.787 122.9 236.71C122.831 236.751 122.685 236.765 122.529 236.684L122.522 236.699Z"   fill="#727785" >
</path>
<path d="M121.724 237.237C121.721 237.074 121.739 236.736 121.961 236.566C121.843 236.654 121.721 236.898 121.756 237.238L121.724 237.237Z"   fill="#727785" >
</path>
<path d="M121.936 237.074C122.086 237.137 122.407 237.244 122.646 237.101C122.521 237.178 122.25 237.202 121.947 237.044L121.936 237.074Z"   fill="#727785" >
</path>
<path d="M121.435 237.566C121.64 237.645 122.08 237.774 122.421 237.562C122.243 237.675 121.865 237.724 121.453 237.524L121.435 237.566Z"   fill="#727785" >
</path>
<path d="M112.515 230.148C112.119 230.518 111.949 231.029 111.914 231.527C111.878 232.043 111.627 232.687 111.064 232.917C110.501 233.148 109.888 232.009 110.802 230.974C111.18 230.545 111.534 230.25 112.515 230.148Z"   fill="#E5E6ED" >
</path>
<path d="M110.538 233.061C110.631 232.381 110.932 230.986 111.965 230.425C111.419 230.714 110.749 231.646 110.672 233.085L110.538 233.061Z"   fill="#727785" >
</path>
<path d="M110.973 231.581C110.924 231.426 110.847 231.096 111.012 230.871C110.924 230.988 110.875 231.256 111.004 231.573L110.973 231.581Z"   fill="#727785" >
</path>
<path d="M111.189 231.211C111.272 231.199 111.444 231.159 111.517 231.024C111.479 231.096 111.362 231.183 111.187 231.194L111.189 231.211Z"   fill="#727785" >
</path>
<path d="M110.785 232.084C110.697 231.947 110.538 231.648 110.64 231.388C110.585 231.524 110.606 231.796 110.813 232.068L110.785 232.084Z"   fill="#727785" >
</path>
<path d="M110.881 231.835C111.042 231.812 111.373 231.737 111.503 231.49C111.436 231.62 111.216 231.782 110.875 231.804L110.881 231.835Z"   fill="#727785" >
</path>
<path d="M110.709 232.516C110.925 232.477 111.368 232.36 111.55 232.002C111.456 232.191 111.158 232.429 110.702 232.471L110.709 232.516Z"   fill="#727785" >
</path>
<path d="M101.122 230.615C101.352 230.836 101.449 231.137 101.466 231.431C101.483 231.735 101.626 232.115 101.956 232.255C102.285 232.395 102.654 231.729 102.124 231.113C101.905 230.858 101.699 230.682 101.122 230.615Z"   fill="#E5E6ED" >
</path>
<path d="M102.264 232.343C102.215 231.942 102.048 231.119 101.444 230.782C101.763 230.956 102.15 231.51 102.185 232.356L102.264 232.343Z"   fill="#727785" >
</path>
<path d="M102.019 231.469C102.049 231.378 102.097 231.184 102.001 231.051C102.052 231.12 102.079 231.278 102.001 231.464L102.019 231.469Z"   fill="#727785" >
</path>
<path d="M101.895 231.25C101.846 231.242 101.745 231.217 101.703 231.138C101.725 231.18 101.793 231.232 101.896 231.24L101.895 231.25Z"   fill="#727785" >
</path>
<path d="M102.126 231.767C102.178 231.687 102.274 231.512 102.216 231.358C102.248 231.439 102.233 231.598 102.11 231.757L102.126 231.767Z"   fill="#727785" >
</path>
<path d="M102.071 231.62C101.976 231.605 101.783 231.558 101.708 231.412C101.746 231.489 101.874 231.586 102.075 231.601L102.071 231.62Z"   fill="#727785" >
</path>
<path d="M102.168 232.021C102.041 231.997 101.781 231.925 101.677 231.713C101.73 231.825 101.904 231.967 102.172 231.995L102.168 232.021Z"   fill="#727785" >
</path>
<path d="M120.103 234.083C119.873 234.303 119.776 234.605 119.759 234.898C119.742 235.202 119.599 235.583 119.27 235.723C118.94 235.862 118.571 235.197 119.101 234.581C119.32 234.326 119.527 234.15 120.103 234.083Z"   fill="#E5E6ED" >
</path>
<path d="M118.961 235.811C119.011 235.41 119.178 234.587 119.782 234.25C119.463 234.424 119.075 234.977 119.04 235.824L118.961 235.811Z"   fill="#727785" >
</path>
<path d="M119.206 234.938C119.176 234.847 119.129 234.653 119.224 234.52C119.173 234.589 119.146 234.747 119.224 234.932L119.206 234.938Z"   fill="#727785" >
</path>
<path d="M119.33 234.718C119.379 234.71 119.48 234.686 119.522 234.606C119.501 234.648 119.432 234.7 119.329 234.708L119.33 234.718Z"   fill="#727785" >
</path>
<path d="M119.099 235.235C119.047 235.155 118.951 234.98 119.009 234.826C118.977 234.907 118.992 235.066 119.115 235.225L119.099 235.235Z"   fill="#727785" >
</path>
<path d="M119.154 235.087C119.249 235.072 119.442 235.026 119.517 234.88C119.479 234.957 119.351 235.053 119.15 235.069L119.154 235.087Z"   fill="#727785" >
</path>
<path d="M119.057 235.489C119.184 235.465 119.444 235.392 119.549 235.181C119.495 235.292 119.321 235.435 119.053 235.463L119.057 235.489Z"   fill="#727785" >
</path>
<rect x="197" y="115.4287109375" width="8" height="130"   fill="#20242E" >
</rect>
<rect x="197" y="115.4287109375" width="6" height="130"   fill="#334680" >
</rect>
<path     fill="#2F63FF"  d="M259.951 102.558L234.736 146.232C233.082 149.098 230.024 150.863 226.715 150.863L176.285 150.863C172.976 150.863 169.918 149.098 168.264 146.232L143.049 102.558C141.394 99.6923 141.394 96.1618 143.049 93.2962L168.264 49.622C169.918 46.7565 172.976 44.9912 176.285 44.9912L226.715 44.9912C230.024 44.9912 233.082 46.7565 234.736 49.622L259.951 93.2962C261.606 96.1618 261.606 99.6923 259.951 102.558Z">
</path>
<path d="M155.592 124.283C194.161 120.092 224.18 87.4199 224.18 47.7368C224.18 46.8177 224.164 45.9024 224.132 44.9911L176.284 44.9905C172.976 44.9904 169.918 46.7556 168.264 49.6211L143.048 93.294C141.394 96.1595 141.394 99.6899 143.048 102.555L155.592 124.283Z" fill-rule="evenodd"  fill="#FFFFFF" fill-opacity="0.15">
</path>
<path fill-rule="evenodd"  fill="rgba(255, 255, 255, 1)"  d="M230.614 140.654L253.173 101.58C254.653 99.0169 254.653 95.8585 253.173 93.2949L230.614 54.2218C229.134 51.6583 226.399 50.0791 223.439 50.0791L178.321 50.0791C175.361 50.0791 172.626 51.6583 171.146 54.2218L148.587 93.2949C147.107 95.8585 147.107 99.0169 148.587 101.58L171.146 140.654C172.626 143.217 175.361 144.796 178.321 144.796L223.439 144.796C226.399 144.796 229.134 143.217 230.614 140.654ZM251.283 97.4377Q251.283 98.8539 250.575 100.08L228.016 139.154Q227.308 140.38 226.082 141.088Q224.855 141.796 223.439 141.796L178.321 141.796Q176.905 141.796 175.678 141.088Q174.452 140.38 173.744 139.154L151.185 100.08Q150.477 98.8539 150.477 97.4377Q150.477 96.0214 151.185 94.7949L173.744 55.7218Q174.452 54.4953 175.678 53.7872Q176.905 53.0791 178.321 53.0791L223.439 53.0791Q224.855 53.0791 226.082 53.7872Q227.308 54.4953 228.016 55.7218L250.575 94.7949Q251.283 96.0214 251.283 97.4377Z">
</path>
<g >
<text transform="translate(169.1796875, 70.736572265625)">
<tspan x="0" y="40.671875" font-size="40" line-height="54"  fill="#FFFFFF"  font-family="Roboto-Regular" letter-spacing="0" >
404</tspan>
</text>
</g>
<path d="M145.357 169.429L155.231 169.429L177.674 239.449L122.914 239.449L145.357 169.429Z"   fill="#FFFFFF" >
</path>
<path d="M155.231 169.429L145.357 169.429L136.294 197.706L164.295 197.706L155.231 169.429ZM166.884 205.786L133.704 205.786L130.395 216.109L170.193 216.109L166.884 205.786ZM172.783 224.189L127.805 224.189L122.914 239.449L177.674 239.449L172.783 224.189Z" fill-rule="evenodd"  fill="#2F63FF" >
</path>
<rect x="109" y="239.44921875" width="82.59" height="6.28"   fill="#2F63FF" >
</rect>
<path d="M175.516 232.717L125.072 232.717L122.915 239.447L177.673 239.447L175.516 232.717Z" fill-rule="evenodd"  fill="#000000" fill-opacity="0.2">
</path>
<g mask="url(#mask-r40cwoyyzIAh-4OUULnOV)">
<circle cx="98.2278466796875" cy="152.372744140625" r="83.935"   fill="#FFFFFF" fill-opacity="0.2">
</circle>
</g>
<path    stroke="rgba(32, 36, 46, 1)" stroke-width="4" stroke-linejoin="round" stroke-linecap="round"  d="M2 246.429L402 246.429">
</path>
<defs>
<mask id="mask-r40cwoyyzIAh-4OUULnOV" style="mask-type:alpha" maskUnits="userSpaceOnUse">
<path d="M155.231 169.429L145.357 169.429L136.294 197.706L164.295 197.706L155.231 169.429ZM166.884 205.786L133.704 205.786L130.395 216.109L170.193 216.109L166.884 205.786ZM172.783 224.189L127.805 224.189L122.914 239.449L177.674 239.449L172.783 224.189Z" fill-rule="evenodd"  fill="#2F63FF" >
</path>
<rect x="109" y="239.44921875" width="82.59" height="6.28"   fill="#2F63FF" >
</rect>
<path d="M175.516 232.717L125.072 232.717L122.915 239.447L177.673 239.447L175.516 232.717Z" fill-rule="evenodd"  fill="#000000" fill-opacity="0.2">
</path>
</mask>
</defs>
</svg>
