<svg xmlns="http://www.w3.org/2000/svg" xmlns:xlink="http://www.w3.org/1999/xlink" width="53.21854945591508" height="53.214071001325344" viewBox="0 0 53.21854945591508 53.214071001325344" fill="none">
<g filter="url(#filter_64_56)">
<rect  x="5.027029854910666" y="2.513514927455361" width="43.16448211669922" height="43.16" rx="14.243251255580363"    fill="url(#linear_fill_64_56_0)" >
</rect>
</g>
<path d="M30.8612 14.4035L22.6893 14.4035C22.2988 14.4035 21.9634 14.6231 21.8202 14.9366C21.7724 15.0407 21.7463 15.1556 21.7463 15.2759L21.7463 17.8927L31.8036 17.8926L31.8036 15.2657C31.8013 15.0872 31.742 14.9214 31.6403 14.784C31.6386 14.7818 31.6362 14.7802 31.6349 14.778C31.6018 14.7342 31.5651 14.6932 31.5249 14.6559C31.5238 14.6553 31.5232 14.6549 31.5225 14.6543C31.4692 14.6061 31.409 14.5662 31.3457 14.5306C31.3451 14.53 31.3446 14.5294 31.3433 14.5294C31.254 14.4797 31.1564 14.4407 31.0511 14.4211C31.0074 14.4129 30.9618 14.4113 30.9168 14.4085C30.8984 14.4079 30.88 14.4035 30.8612 14.4035ZM36.8321 19.6368C36.8321 19.1547 36.4103 18.7645 35.8891 18.7645L17.66 18.7645C17.1388 18.7645 16.717 19.1551 16.717 19.6368L16.717 27.7771C16.717 28.2592 17.1393 28.6494 17.66 28.6494L20.8027 28.6494L20.8027 24.2881L32.7455 24.2881L32.7455 28.6494L35.8886 28.6494C36.4098 28.6494 36.8316 28.2592 36.8322 27.7775L36.8321 27.7775L36.8321 19.6368ZM19.5455 20.5088C20.0663 20.5088 20.4884 20.8994 20.4884 21.3812C20.4884 21.8631 20.0663 22.2537 19.5455 22.2537C19.0247 22.2537 18.6025 21.8631 18.6025 21.3812C18.6025 20.8994 19.0247 20.5088 19.5455 20.5088ZM31.8036 25.1608L21.7463 25.1608L21.7463 32.1392C21.7463 32.6214 22.1686 33.0116 22.6893 33.0116L30.8605 33.0116C31.3817 33.0116 31.8035 32.6213 31.8035 32.1392L31.8035 26.9055L31.8036 26.9055L31.8036 25.1608ZM23.632 27.7778L23.632 26.9055L29.9179 26.9055L29.9179 27.7778L23.632 27.7778ZM23.632 29.5219L23.632 28.6495L29.9179 28.6495L29.9179 29.5219L23.632 29.5219ZM23.632 30.3943L23.632 31.2668L29.9179 31.2668L29.9179 30.3943L23.632 30.3943Z" fill-rule="evenodd"  fill="#FFFFFF" >
</path>
<defs>
<linearGradient id="linear_fill_64_56_0" x1="13.43915091195538" y1="7.649916808732922" x2="42.00295188297912" y2="39.780636509486605" gradientUnits="userSpaceOnUse">
<stop offset="0" stop-color="#3D96FD"  />
<stop offset="1" stop-color="#1E6DEF"  />
</linearGradient>
<filter id="filter_64_56" x="0" y="0" width="53.21854945591508" height="53.214071001325344" filterUnits="userSpaceOnUse" color-interpolation-filters="sRGB">
<feFlood flood-opacity="0" result="feFloodId_64_56"/>
<feColorMatrix in="SourceAlpha" type="matrix" values="0 0 0 0 0 0 0 0 0 0 0 0 0 0 0 0 0 0 127 0" result="hardAlpha_64_56"/>
<feOffset dx="0" dy="2.5135149274553585"/>
<feGaussianBlur stdDeviation="2.5135149274553585"/>
<feComposite in2="hardAlpha_64_56" operator="out"/>
<feColorMatrix type="matrix" values="0 0 0 0 0.11764705882352941 0 0 0 0 0.42745098039215684 0 0 0 0 0.9372549019607843 0 0 0 0.16 0"/>
<feBlend mode="normal" in2="feFloodId_64_56" result="dropShadow_1_64_56"/>
<feBlend mode="normal" in="SourceGraphic" in2="dropShadow_1_64_56" result="shape_64_56"/>
</filter>
</defs>
</svg>
