<svg xmlns="http://www.w3.org/2000/svg" xmlns:xlink="http://www.w3.org/1999/xlink" width="72.30663299560547" height="51.8560791015625" viewBox="0 0 72.30663299560547 51.8560791015625" fill="none">
<rect  x="0" y="0" width="72.306640625" height="51.856109619140625" rx="4.671999999999995"    fill="#F0EEFF" >
</rect>
<rect  x="5.9840087890625" y="15.0380859375" width="3.111358642578125" height="16.45599365234375" transform="rotate(-90 5.9840087890625 15.0380859375)" rx="1.5556793212890625"    fill="#746EE6" >
</rect>
<rect  x="5.9840087890625" y="23.5079345703125" width="3.111358642578125" height="11.4693603515625" transform="rotate(-90 5.9840087890625 23.5079345703125)" rx="1.5556793212890625"    fill="#746EE6" >
</rect>
<rect  x="5.9840087890625" y="31.97802734375" width="3.111358642578125" height="20.94403076171875" transform="rotate(-90 5.9840087890625 31.97802734375)" rx="1.5556793212890625"    fill="#746EE6" >
</rect>
<rect  x="5.9840087890625" y="40.4478759765625" width="3.111358642578125" height="24.4346923828125" transform="rotate(-90 5.9840087890625 40.4478759765625)" rx="1.5556793212890625"    fill="#746EE6" >
</rect>
<path d="M44.6605 22.8736C46.2736 24.2484 48.3471 25.0049 50.4948 25.0049C52.6423 25.0049 54.72 24.2491 56.3342 22.8736C58.2571 21.2348 59.3561 18.8704 59.3561 16.3864C59.3473 11.6368 55.3856 7.78842 50.4948 7.77832C45.6024 7.7864 41.6425 11.6354 41.6335 16.3864C41.6335 18.8714 42.7356 21.2359 44.6605 22.8736ZM35.3703 35.6769C36.0879 31.4537 37.9933 27.1933 41.1548 24.5538C41.5184 24.2519 42.0454 24.2765 42.3766 24.616C44.6241 26.9143 47.6533 28.1993 50.809 28.1993C53.9653 28.2057 56.996 26.9171 59.2414 24.616C59.5761 24.2769 60.1015 24.2524 60.4682 24.5538C63.6304 27.1933 65.5348 31.4537 66.2527 35.6769C68.0428 46.1878 33.5791 46.1878 35.3703 35.6769ZM48.9988 37.5593C48.9988 38.614 49.8173 39.4728 50.8339 39.4728C51.8506 39.4728 52.669 38.614 52.669 37.5593L52.669 33.1515C52.669 32.0968 51.8506 31.238 50.8339 31.238C49.8173 31.238 48.9988 32.0968 48.9988 33.1515L48.9988 37.5593Z" fill-rule="evenodd"  fill="#746EE6" >
</path>
</svg>
